<svg width="24" height="24" viewBox="0 0 24 24" fill="none" xmlns="http://www.w3.org/2000/svg">
<g id="27) Icon/home">
<path id="&#240;&#159;&#142;&#168; Icon &#208;&#161;olor" fill-rule="evenodd" clip-rule="evenodd" d="M16 19.9878H18.99L19 11.6118L11.998 4.4198L5.006 11.5708L5 19.9878H8V12.9878C8 12.4348 8.447 11.9878 9 11.9878H15C15.552 11.9878 16 12.4348 16 12.9878V19.9878ZM14 19.9878H10V13.9878H14V19.9878ZM20.424 10.1728L12.715 2.2888C12.338 1.9038 11.662 1.9038 11.285 2.2888L3.575 10.1738C3.21 10.5488 3 11.0728 3 11.6118V19.9878C3 21.0908 3.847 21.9878 4.888 21.9878H9H15H19.111C20.152 21.9878 21 21.0908 21 19.9878V11.6118C21 11.0728 20.79 10.5488 20.424 10.1728Z" fill="#7F7F7F"/>
</g>
</svg>
