<svg width="1200" height="151" viewBox="0 0 1200 151" fill="none" xmlns="http://www.w3.org/2000/svg">
<rect width="1200" height="151" fill="#6DBFDE"/>
<mask id="mask0" mask-type="alpha" maskUnits="userSpaceOnUse" x="0" y="0" width="1200" height="151">
<rect width="1200" height="151" fill="#6DBFDE"/>
</mask>
<g mask="url(#mask0)">
<path fill-rule="evenodd" clip-rule="evenodd" d="M1058.27 48.4792C1058.27 26.8471 1075.87 9.25001 1097.5 9.25001C1119.13 9.25001 1136.73 26.8471 1136.73 48.4792C1136.73 66.1883 1124.85 81.017 1108.71 85.8814V98.9167C1108.71 105.115 1103.7 110.125 1097.5 110.125C1091.3 110.125 1086.29 105.115 1086.29 98.9167V76.5C1086.29 70.3018 1091.3 65.2917 1097.5 65.2917C1106.77 65.2917 1114.31 57.7485 1114.31 48.4792C1114.31 39.2099 1106.77 31.6667 1097.5 31.6667C1088.23 31.6667 1080.69 39.2099 1080.69 48.4792C1080.69 54.6774 1075.68 59.6875 1069.48 59.6875C1063.28 59.6875 1058.27 54.6774 1058.27 48.4792ZM1086.29 132.542C1086.29 126.343 1091.3 121.333 1097.5 121.333C1103.7 121.333 1108.71 126.343 1108.71 132.542C1108.71 138.74 1103.7 143.75 1097.5 143.75C1091.3 143.75 1086.29 138.74 1086.29 132.542ZM1097.5 166.167C1048.06 166.167 1007.83 125.94 1007.83 76.5C1007.83 27.0601 1048.06 -13.1666 1097.5 -13.1666C1146.94 -13.1666 1187.17 27.0601 1187.17 76.5C1187.17 125.94 1146.94 166.167 1097.5 166.167ZM1097.5 -35.5833C1035.7 -35.5833 985.417 14.6973 985.417 76.5C985.417 138.303 1035.7 188.583 1097.5 188.583C1159.3 188.583 1209.58 138.303 1209.58 76.5C1209.58 14.6973 1159.3 -35.5833 1097.5 -35.5833Z" fill="#399ABE"/>
<mask id="mask1" mask-type="alpha" maskUnits="userSpaceOnUse" x="985" y="-36" width="225" height="225">
<path fill-rule="evenodd" clip-rule="evenodd" d="M1058.27 48.4792C1058.27 26.8471 1075.87 9.25001 1097.5 9.25001C1119.13 9.25001 1136.73 26.8471 1136.73 48.4792C1136.73 66.1883 1124.85 81.017 1108.71 85.8814V98.9167C1108.71 105.115 1103.7 110.125 1097.5 110.125C1091.3 110.125 1086.29 105.115 1086.29 98.9167V76.5C1086.29 70.3018 1091.3 65.2917 1097.5 65.2917C1106.77 65.2917 1114.31 57.7485 1114.31 48.4792C1114.31 39.2099 1106.77 31.6667 1097.5 31.6667C1088.23 31.6667 1080.69 39.2099 1080.69 48.4792C1080.69 54.6774 1075.68 59.6875 1069.48 59.6875C1063.28 59.6875 1058.27 54.6774 1058.27 48.4792ZM1086.29 132.542C1086.29 126.343 1091.3 121.333 1097.5 121.333C1103.7 121.333 1108.71 126.343 1108.71 132.542C1108.71 138.74 1103.7 143.75 1097.5 143.75C1091.3 143.75 1086.29 138.74 1086.29 132.542ZM1097.5 166.167C1048.06 166.167 1007.83 125.94 1007.83 76.5C1007.83 27.0601 1048.06 -13.1666 1097.5 -13.1666C1146.94 -13.1666 1187.17 27.0601 1187.17 76.5C1187.17 125.94 1146.94 166.167 1097.5 166.167ZM1097.5 -35.5833C1035.7 -35.5833 985.417 14.6973 985.417 76.5C985.417 138.303 1035.7 188.583 1097.5 188.583C1159.3 188.583 1209.58 138.303 1209.58 76.5C1209.58 14.6973 1159.3 -35.5833 1097.5 -35.5833Z" fill="white"/>
</mask>
<g mask="url(#mask1)">
</g>
</g>
</svg>
